<svg width="36" height="36" viewBox="0 0 36 36" fill="none" xmlns="http://www.w3.org/2000/svg">
<path d="M0 18C0 1.62 1.62 0 18 0C34.38 0 36 1.62 36 18C36 34.38 34.38 36 18 36C1.62 36 0 34.38 0 18Z" fill="#4F46E5" fill-opacity="0.08"/>
<path d="M24.2188 12.7813L24.2217 12.7788C24.1643 12.7104 24.0986 12.65 24.0389 12.5835C23.9238 12.4553 23.8094 12.3273 23.6867 12.2066C23.6003 12.1218 23.5082 12.0433 23.4179 11.9624C23.3035 11.8596 23.1894 11.7571 23.0691 11.6609C22.9696 11.581 22.8664 11.5068 22.7632 11.4318C22.6431 11.3443 22.5223 11.2588 22.3973 11.1779C22.2884 11.1074 22.1771 11.0411 22.0647 10.9755C21.9363 10.9011 21.806 10.8301 21.6739 10.7625C21.5585 10.7036 21.4426 10.6471 21.3239 10.5938C21.1849 10.5313 21.0433 10.4741 20.9001 10.4192C20.7818 10.374 20.6641 10.3283 20.5431 10.2886C20.3891 10.2376 20.2318 10.1952 20.0739 10.1534C19.9584 10.1226 19.8443 10.0893 19.7268 10.0639C19.5455 10.0243 19.3602 9.99681 19.1747 9.96969C19.0753 9.95531 18.9781 9.93519 18.8776 9.92419C17.5429 9.776 16.1924 9.96264 14.948 10.4673C13.7036 10.9719 12.6045 11.7786 11.75 12.8144V10.5H10.5V15.5H15.5V14.25H12.2572C12.8782 13.2918 13.7288 12.504 14.7318 11.9582C15.7347 11.4124 16.8582 11.126 18 11.125C18.2483 11.1256 18.4963 11.1396 18.7431 11.1668C18.8283 11.1759 18.9106 11.1931 18.9948 11.2053C19.1516 11.2281 19.3081 11.2516 19.4615 11.2849C19.561 11.3066 19.658 11.3349 19.756 11.3609C19.8892 11.396 20.0221 11.432 20.1519 11.4748C20.2546 11.5089 20.3551 11.5477 20.4556 11.5861C20.576 11.6325 20.6953 11.6804 20.8122 11.7329C20.9129 11.7784 21.0118 11.8267 21.1099 11.8767C21.2214 11.9335 21.331 11.9932 21.4388 12.0559C21.5344 12.1117 21.6291 12.1684 21.7219 12.2283C21.8269 12.2963 21.9287 12.3684 22.0296 12.4416C22.1174 12.5057 22.2056 12.5689 22.2902 12.6369C22.3912 12.7178 22.4874 12.8041 22.5839 12.8908C22.6605 12.9596 22.7388 13.0263 22.8122 13.0983C22.9164 13.2006 23.0136 13.3095 23.1113 13.4181C23.855 14.2478 24.3858 15.2458 24.6579 16.3263C24.9301 17.4067 24.9353 18.5372 24.6733 19.6201C24.4113 20.703 23.8898 21.706 23.1538 22.5425C22.4178 23.3791 21.4895 24.0241 20.4487 24.4219C19.408 24.8197 18.2861 24.9585 17.1797 24.8262C16.0734 24.6939 15.0159 24.2945 14.0983 23.6625C13.1807 23.0305 12.4306 22.1848 11.9126 21.1983C11.3946 20.2118 11.1243 19.1142 11.125 18H9.87501C9.87335 19.307 10.187 20.595 10.7894 21.7549C11.3917 22.9148 12.265 23.9123 13.3351 24.6627C14.4052 25.413 15.6405 25.8942 16.9362 26.0653C18.2319 26.2365 19.5498 26.0925 20.778 25.6456C22.0062 25.1988 23.1085 24.4622 23.9913 23.4985C24.8741 22.5347 25.5114 21.3722 25.8491 20.1096C26.1868 18.847 26.2149 17.5216 25.9311 16.2458C25.6473 14.9701 25.0599 13.7816 24.2188 12.7813Z" fill="#4F46E5"/>
</svg>
